/* XPM */
static char * False_xpm[] = {
"16 16 2 1",
" 	c None",
".	c #FF0000",
"                ",
"                ",
"                ",
"     ......     ",
"     .          ",
"     .          ",
"     .          ",
"     ......     ",
"     .          ",
"     .          ",
"     .          ",
"     .          ",
"     .          ",
"                ",
"                ",
"                "};
