/* XPM */
static char * String_xpm[] = {
"16 16 77 1",
" 	c None",
".	c #000000",
"+	c #040404",
"@	c #080806",
"#	c #090606",
"$	c #EEEAE1",
"%	c #E7E3DA",
"&	c #E0DBD1",
"*	c #D4B46F",
"=	c #0C0906",
"-	c #E3C072",
";	c #E4C072",
">	c #060505",
",	c #0B0A08",
"'	c #D5B264",
")	c #D3AF5A",
"!	c #080602",
"~	c #E1B863",
"{	c #DDB151",
"]	c #DBAE4A",
"^	c #DDB152",
"/	c #DDB252",
"(	c #070705",
"_	c #0C0A07",
":	c #D3A33B",
"<	c #020201",
"[	c #DAAA41",
"}	c #040302",
"|	c #E4D9BF",
"1	c #0B0907",
"2	c #030201",
"3	c #020200",
"4	c #C99115",
"5	c #080704",
"6	c #DBC8A2",
"7	c #E7D7B4",
"8	c #E0CD9E",
"9	c #080601",
"0	c #040400",
"a	c #010100",
"b	c #0B0B08",
"c	c #DCBF83",
"d	c #DCBC75",
"e	c #DEB559",
"f	c #040301",
"g	c #BC8815",
"h	c #120E07",
"i	c #060402",
"j	c #0A0804",
"k	c #D4A747",
"l	c #D6A12F",
"m	c #0E0C05",
"n	c #C8C1B0",
"o	c #1D1B15",
"p	c #D7AD51",
"q	c #070502",
"r	c #080804",
"s	c #BC953B",
"t	c #C4BDAD",
"u	c #0B0807",
"v	c #DBAC47",
"w	c #1B150A",
"x	c #B78A2C",
"y	c #D8A83C",
"z	c #D4A338",
"A	c #0F0B03",
"B	c #181105",
"C	c #C59325",
"D	c #C18E1F",
"E	c #060600",
"F	c #CC992D",
"G	c #B98B25",
"H	c #B3831F",
"I	c #C08C1C",
"J	c #060500",
"K	c #0E0C03",
"L	c #0D0A00",
"                ",
"   .+@#         ",
"  .$%&*=        ",
" .-;>,')!       ",
" .~.  .{].      ",
" .^/. (_:<      ",
"  .[.}|$12      ",
"   345678}90    ",
"    a2bcdefgh   ",
"      ijkl.mno  ",
"      <pq. rstu ",
"      .]v.  wx= ",
"       .yzABCDE ",
"        .FGHIJ  ",
"         0KL0   ",
"                "};
