/* XPM */
static char * Key_xpm[] = {
"16 16 54 1",
" 	c None",
".	c #110007",
"+	c #0E0900",
"@	c #000013",
"#	c #070600",
"$	c #F6F006",
"%	c #ECE711",
"&	c #E5EE00",
"*	c #16021E",
"=	c #120900",
"-	c #EDF12B",
";	c #000033",
">	c #0F0000",
",	c #FFFE03",
"'	c #E6E500",
")	c #16021B",
"!	c #F7F502",
"~	c #000E00",
"{	c #130000",
"]	c #FFF000",
"^	c #FFE711",
"/	c #140005",
"(	c #190025",
"_	c #E9DD27",
":	c #E7DC04",
"<	c #FFEC09",
"[	c #FFE707",
"}	c #FFDE10",
"|	c #150021",
"1	c #160700",
"2	c #FAF60E",
"3	c #EFE301",
"4	c #FEF300",
"5	c #E7E000",
"6	c #FFFF08",
"7	c #0E0206",
"8	c #040000",
"9	c #03052E",
"0	c #041212",
"a	c #070300",
"b	c #F2E713",
"c	c #F9DE13",
"d	c #36091E",
"e	c #00001C",
"f	c #1F0010",
"g	c #FFF500",
"h	c #DEDE00",
"i	c #050A00",
"j	c #FAF14A",
"k	c #F5F200",
"l	c #040404",
"m	c #1A0D00",
"n	c #EDE43D",
"o	c #ECE007",
"                ",
"                ",
"    .+@         ",
"   #$%&*        ",
"  =-;>,')       ",
"  >!~{]^/       ",
"  (_:<[}|       ",
"   1234567      ",
"    890abcd     ",
"       efghi    ",
"         >jkl   ",
"          mnol  ",
"           >kl  ",
"            ll  ",
"                ",
"                "};
