/* XPM */
static char * Numeric_xpm[] = {
"16 16 9 1",
" 	c None",
".	c #FF0000",
"+	c #0000FF",
"@	c #0023DB",
"#	c #00EA14",
"$	c #00FF00",
"%	c #004FAF",
"&	c #0028D6",
"*	c #00F20C",
"                ",
"                ",
"                ",
" ... +++@#$$$$  ",
"   .+   %&   $$ ",
"   .     +    $ ",
"   .     +   $$ ",
"   .    ++$$$$  ",
"   .    +    $$ ",
"   .   +      $ ",
"   .  +       $ ",
"   . +  $    $$ ",
" .....++++*$$   ",
"                ",
"                ",
"                "};
