/* XPM */
static char * TrueClass_xpm[] = {
"16 16 2 1",
" 	c None",
".	c #0BF311",
"                ",
"                ",
"                ",
"   .........    ",
"       .        ",
"       .        ",
"       .        ",
"       .        ",
"       .        ",
"       .        ",
"       .        ",
"       .        ",
"       .        ",
"                ",
"                ",
"                "};
